<svg width="221" height="87" viewBox="0 0 221 87" fill="none" xmlns="http://www.w3.org/2000/svg">
<path d="M6.41067 12.864C6.41067 14.4853 6.816 15.9147 7.62667 17.152C8.48 18.3467 9.568 19.4347 10.8907 20.416C12.256 21.3973 13.6853 22.3787 15.1787 23.36C16.8 24.384 18.336 25.472 19.7867 26.624C21.28 27.7333 22.496 29.0347 23.4347 30.528C24.416 31.9787 24.9067 33.728 24.9067 35.776C24.9067 38.0373 24.288 40.0213 23.0507 41.728C21.856 43.4347 20.2133 44.7787 18.1227 45.76C16.0747 46.6987 13.728 47.168 11.0827 47.168C9.80267 47.168 8.45867 47.04 7.05067 46.784C5.68533 46.528 4.42667 46.208 3.27467 45.824C2.16533 45.44 1.35467 45.0347 0.842667 44.608C0.672 44.48 0.522667 44.352 0.394667 44.224C0.266667 44.0533 0.202667 43.776 0.202667 43.392L0.0106666 33.216C-0.0319999 33.0027 0.0533335 32.896 0.266667 32.896C0.522667 32.8533 0.672 32.9173 0.714667 33.088C1.35467 34.4107 2.05867 35.8187 2.82667 37.312C3.59467 38.7627 4.448 40.1067 5.38667 41.344C6.368 42.5813 7.456 43.6053 8.65067 44.416C9.84533 45.184 11.2107 45.568 12.7467 45.568C13.728 45.568 14.6667 45.3973 15.5627 45.056C16.4587 44.7147 17.184 44.096 17.7387 43.2C18.336 42.304 18.6347 41.0667 18.6347 39.488C18.6347 37.4827 18.1867 35.776 17.2907 34.368C16.3947 32.9173 15.2427 31.6587 13.8347 30.592C12.4267 29.4827 10.9547 28.4373 9.41867 27.456C7.92533 26.4747 6.496 25.472 5.13067 24.448C3.76533 23.3813 2.656 22.1867 1.80267 20.864C0.949333 19.4987 0.522667 17.8773 0.522667 16C0.522667 13.6107 1.184 11.6693 2.50667 10.176C3.872 8.64 5.57867 7.50933 7.62667 6.784C9.71733 6.05867 11.8293 5.696 13.9627 5.696C15.4987 5.696 17.0347 5.84533 18.5707 6.144C20.1067 6.4 21.3227 6.72 22.2187 7.104C22.6453 7.27467 22.9013 7.46667 22.9867 7.68C23.1147 7.89333 23.1787 8.128 23.1787 8.384V17.792C23.1787 17.92 23.072 18.0267 22.8587 18.112C22.688 18.1547 22.56 18.112 22.4747 17.984C22.2187 17.472 21.856 16.64 21.3867 15.488C20.9173 14.2933 20.2987 13.056 19.5307 11.776C18.7627 10.496 17.7813 9.408 16.5867 8.512C15.392 7.57333 13.9413 7.104 12.2347 7.104C11.168 7.104 10.1867 7.31733 9.29067 7.744C8.43733 8.17067 7.73333 8.81067 7.17867 9.664C6.66667 10.4747 6.41067 11.5413 6.41067 12.864Z" fill="#3D5A80"/>
<path d="M43.2522 47.168C40.4788 47.168 38.1108 46.592 36.1482 45.44C34.2282 44.288 32.7562 42.7733 31.7322 40.896C30.7508 38.976 30.2602 36.928 30.2602 34.752C30.2602 32.2347 30.8788 29.952 32.1162 27.904C33.3535 25.856 35.0602 24.2133 37.2362 22.976C39.4122 21.7387 41.9082 21.12 44.7242 21.12C47.2415 21.12 49.2468 21.696 50.7402 22.848C52.2762 24 53.0442 25.8773 53.0442 28.48C53.0442 29.0347 53.0015 29.504 52.9162 29.888C52.8308 30.272 52.6388 30.464 52.3402 30.464H46.1962C46.2815 28.032 46.0468 26.0907 45.4922 24.64C44.9375 23.1467 43.8708 22.4 42.2922 22.4C40.5855 22.4 39.2202 23.2747 38.1962 25.024C37.2148 26.7733 36.7242 29.0987 36.7242 32C36.7242 34.4747 37.1082 36.608 37.8762 38.4C38.6442 40.192 39.7748 41.5787 41.2682 42.56C42.7615 43.5413 44.5962 44.032 46.7722 44.032C48.0522 44.032 49.1188 43.8827 49.9722 43.584C50.8682 43.2427 51.8495 42.7947 52.9162 42.24C53.0015 42.1547 53.1082 42.1973 53.2362 42.368C53.4068 42.5387 53.4495 42.688 53.3642 42.816C51.7855 44.3947 50.1642 45.5253 48.5002 46.208C46.8788 46.848 45.1295 47.168 43.2522 47.168ZM34.4842 30.528L34.4202 29.312L48.4362 29.056V30.464L34.4842 30.528Z" fill="#3D5A80"/>
<path d="M66.6102 64.448C63.6662 64.448 61.2555 63.7653 59.3782 62.4C57.5008 61.0773 56.5622 59.328 56.5622 57.152C56.5622 55.7867 57.0742 54.336 58.0982 52.8C59.1648 51.264 61.1915 49.5787 64.1782 47.744L64.8182 48.448C64.3062 48.7893 63.8582 49.1947 63.4742 49.664C63.0902 50.176 62.7915 50.7733 62.5782 51.456C62.4075 52.1387 62.3222 52.928 62.3222 53.824C62.3222 55.744 62.7062 57.3227 63.4742 58.56C64.2848 59.84 65.3088 60.8 66.5462 61.44C67.7835 62.08 69.0848 62.4 70.4502 62.4C72.5835 62.4 74.2902 61.7173 75.5702 60.352C76.8928 58.9867 77.5542 57.1307 77.5542 54.784C77.5542 52.864 77.1275 51.4987 76.2742 50.688C75.4635 49.8773 74.3328 49.3653 72.8822 49.152C71.4315 48.9813 69.7462 48.896 67.8262 48.896C66.3755 48.8533 64.9248 48.7253 63.4742 48.512C62.0235 48.2987 60.8075 47.8293 59.8262 47.104C58.8875 46.4213 58.4182 45.3333 58.4182 43.84C58.4182 42.3467 58.9302 40.896 59.9542 39.488C61.0208 38.08 62.7062 36.8213 65.0102 35.712L65.5862 36.096C64.7328 36.608 64.0928 37.184 63.6662 37.824C63.2395 38.4213 63.0262 39.168 63.0262 40.064C63.0262 41.2587 63.3462 42.112 63.9862 42.624C64.6688 43.136 65.6075 43.456 66.8022 43.584C67.9968 43.6693 69.3835 43.7333 70.9622 43.776C72.4128 43.776 73.8208 43.84 75.1862 43.968C76.5942 44.0533 77.8742 44.3093 79.0262 44.736C80.1782 45.1627 81.0955 45.8453 81.7782 46.784C82.4608 47.7227 82.8022 49.024 82.8022 50.688C82.8022 52.5227 82.3755 54.2507 81.5222 55.872C80.6688 57.536 79.4955 59.008 78.0022 60.288C76.5088 61.568 74.7808 62.5707 72.8182 63.296C70.8555 64.064 68.7862 64.448 66.6102 64.448ZM67.6982 37.888C65.6502 37.888 63.8795 37.4613 62.3862 36.608C60.8928 35.7547 59.7408 34.6667 58.9302 33.344C58.1195 32.0213 57.7142 30.656 57.7142 29.248C57.7142 27.456 58.2902 25.9627 59.4422 24.768C60.5942 23.5733 62.0235 22.6987 63.7302 22.144C65.4795 21.5467 67.2075 21.248 68.9142 21.248C70.8768 21.248 72.6048 21.6107 74.0982 22.336C75.5915 23.0187 76.7648 23.9573 77.6182 25.152C78.5142 26.3467 78.9622 27.712 78.9622 29.248C78.9622 31.04 78.3862 32.576 77.2342 33.856C76.1248 35.136 74.6955 36.1387 72.9462 36.864C71.2395 37.5467 69.4902 37.888 67.6982 37.888ZM69.3622 36.736C70.2155 36.736 70.9835 36.3093 71.6662 35.456C72.3488 34.6027 72.6902 33.1307 72.6902 31.04C72.6902 29.0773 72.3702 27.4773 71.7302 26.24C71.1328 24.96 70.3648 24.0213 69.4262 23.424C68.5302 22.784 67.6555 22.464 66.8022 22.464C65.7782 22.464 65.0315 22.8907 64.5622 23.744C64.1355 24.5973 63.9222 25.792 63.9222 27.328C63.9222 29.1627 64.1782 30.784 64.6902 32.192C65.2448 33.6 65.9275 34.7093 66.7382 35.52C67.5915 36.3307 68.4662 36.736 69.3622 36.736ZM74.2902 26.368L74.4182 24.32C75.7835 23.2533 77.1062 22.4427 78.3862 21.888C79.7088 21.3333 81.1595 21.056 82.7382 21.056C82.9515 21.056 83.0795 21.2267 83.1222 21.568C83.2075 21.9093 83.2502 22.336 83.2502 22.848C83.2502 23.4453 83.1648 24.1067 82.9942 24.832C82.8235 25.5573 82.6528 25.856 82.4822 25.728C81.7142 25.3867 80.9248 25.1307 80.1142 24.96C79.3035 24.7467 78.5142 24.64 77.7462 24.64C77.2342 24.64 76.7222 24.6827 76.2102 24.768C75.7408 24.8107 75.2288 24.9387 74.6742 25.152L74.2902 26.368Z" fill="#3D5A80"/>
<path d="M96.1252 47.168C93.7785 47.168 91.9225 46.4213 90.5572 44.928C89.2345 43.4347 88.5732 41.5147 88.5732 39.168V29.76C88.5732 28.352 88.4025 27.3067 88.0612 26.624C87.7625 25.9413 87.2718 25.6 86.5892 25.6C86.1198 25.6 85.5865 25.7493 84.9892 26.048C84.8185 26.0907 84.6692 25.984 84.5412 25.728C84.4558 25.472 84.4772 25.3227 84.6052 25.28L93.1812 21.184C93.3092 21.1413 93.4158 21.12 93.5012 21.12C93.7145 21.12 93.9278 21.2267 94.1412 21.44C94.3972 21.6107 94.5252 21.7813 94.5252 21.952V36.096C94.5252 38.4 94.9518 40.128 95.8052 41.28C96.7012 42.432 98.0452 43.008 99.8372 43.008C101.074 43.008 102.312 42.6667 103.549 41.984C104.787 41.2587 105.768 40.3627 106.493 39.296L106.877 40.064C105.426 42.1547 103.805 43.8613 102.013 45.184C100.221 46.5067 98.2585 47.168 96.1252 47.168ZM111.229 21.952V38.976C111.229 40.4267 111.357 41.4507 111.613 42.048C111.912 42.6453 112.381 42.944 113.021 42.944C113.32 42.944 113.683 42.88 114.109 42.752C114.579 42.624 115.09 42.4533 115.645 42.24C115.816 42.1547 115.965 42.24 116.093 42.496C116.221 42.7093 116.221 42.8587 116.093 42.944L107.261 47.232C107.176 47.2747 107.069 47.296 106.941 47.296C106.515 47.296 106.131 46.7627 105.789 45.696C105.448 44.6293 105.277 43.1147 105.277 41.152V29.76C105.277 28.352 105.106 27.3067 104.765 26.624C104.467 25.9413 103.976 25.6 103.293 25.6C102.824 25.6 102.269 25.7493 101.629 26.048C101.501 26.0907 101.373 25.984 101.245 25.728C101.16 25.472 101.181 25.3227 101.309 25.28L109.885 21.184C109.971 21.1413 110.077 21.12 110.205 21.12C110.419 21.12 110.632 21.2267 110.845 21.44C111.101 21.6107 111.229 21.7813 111.229 21.952Z" fill="#3D5A80"/>
<path d="M135.862 46.4C135.734 46.4 135.67 46.272 135.67 46.016C135.67 45.76 135.734 45.632 135.862 45.632C137.184 45.632 138.08 45.3333 138.55 44.736C139.019 44.096 139.254 42.9227 139.254 41.216V32C139.254 29.696 138.827 27.9893 137.974 26.88C137.163 25.7707 135.862 25.216 134.07 25.216C132.79 25.216 131.467 25.536 130.102 26.176C128.779 26.816 127.712 27.6907 126.902 28.8L126.582 28.032C128.075 25.8987 129.76 24.192 131.638 22.912C133.515 21.5893 135.563 20.928 137.782 20.928C140.171 20.928 142.006 21.6747 143.286 23.168C144.608 24.6613 145.27 26.5813 145.27 28.928V41.216C145.27 42.9227 145.504 44.096 145.974 44.736C146.486 45.3333 147.403 45.632 148.726 45.632C148.854 45.632 148.918 45.76 148.918 46.016C148.918 46.272 148.854 46.4 148.726 46.4C147.872 46.4 146.891 46.3787 145.782 46.336C144.672 46.2933 143.499 46.272 142.262 46.272C141.067 46.272 139.915 46.2933 138.806 46.336C137.696 46.3787 136.715 46.4 135.862 46.4ZM118.646 46.4C118.518 46.4 118.454 46.272 118.454 46.016C118.454 45.76 118.518 45.632 118.646 45.632C119.968 45.632 120.864 45.3333 121.334 44.736C121.803 44.096 122.038 42.9227 122.038 41.216V29.184C122.038 27.8613 121.888 26.9013 121.59 26.304C121.291 25.664 120.779 25.344 120.054 25.344C119.67 25.344 119.222 25.4293 118.71 25.6C118.198 25.728 117.622 25.9413 116.982 26.24C116.811 26.3253 116.683 26.24 116.598 25.984C116.512 25.728 116.512 25.5787 116.598 25.536L125.494 21.184C125.75 21.0987 125.899 21.056 125.942 21.056C126.411 21.056 126.88 21.568 127.35 22.592C127.819 23.616 128.054 25.088 128.054 27.008V41.216C128.054 42.9227 128.288 44.096 128.758 44.736C129.27 45.3333 130.187 45.632 131.51 45.632C131.638 45.632 131.702 45.76 131.702 46.016C131.702 46.272 131.638 46.4 131.51 46.4C130.656 46.4 129.675 46.3787 128.566 46.336C127.456 46.2933 126.283 46.272 125.046 46.272C123.851 46.272 122.699 46.2933 121.59 46.336C120.48 46.3787 119.499 46.4 118.646 46.4Z" fill="#3D5A80"/>
<path d="M161.933 47.232C160.098 47.232 158.413 46.7413 156.877 45.76C155.384 44.7787 154.168 43.3707 153.229 41.536C152.333 39.6587 151.885 37.3973 151.885 34.752C151.885 32.1493 152.355 29.9733 153.293 28.224C154.232 26.432 155.426 25.0027 156.877 23.936C158.371 22.8693 159.971 22.1013 161.677 21.632C163.384 21.12 165.005 20.864 166.541 20.864C168.077 20.864 169.506 21.056 170.829 21.44C172.152 21.824 173.346 22.2933 174.413 22.848L172.941 28.032C172.045 26.112 171.021 24.7253 169.869 23.872C168.717 22.976 167.288 22.528 165.581 22.528C163.405 22.528 161.677 23.296 160.397 24.832C159.117 26.3253 158.477 28.9493 158.477 32.704C158.477 35.136 158.776 37.2053 159.373 38.912C159.971 40.6187 160.803 41.92 161.869 42.816C162.936 43.712 164.131 44.16 165.453 44.16C167.16 44.16 168.653 43.6907 169.933 42.752C171.213 41.8133 172.451 40.6827 173.645 39.36L174.285 39.936C173.389 40.96 172.323 42.048 171.085 43.2C169.891 44.3093 168.525 45.2693 166.989 46.08C165.496 46.848 163.81 47.232 161.933 47.232ZM177.549 0.832001V38.976C177.549 40.4267 177.677 41.4507 177.933 42.048C178.232 42.6453 178.701 42.944 179.341 42.944C179.64 42.944 180.003 42.88 180.429 42.752C180.899 42.624 181.41 42.4533 181.965 42.24C182.093 42.1547 182.221 42.24 182.349 42.496C182.477 42.7093 182.498 42.8587 182.413 42.944L173.581 47.232C173.453 47.2747 173.347 47.296 173.261 47.296C172.835 47.296 172.429 46.7627 172.045 45.696C171.704 44.6293 171.533 43.1147 171.533 41.152V8.704C171.533 7.25333 171.405 6.208 171.149 5.568C170.893 4.88533 170.403 4.544 169.677 4.544C169.379 4.544 169.016 4.608 168.589 4.736C168.205 4.864 167.779 5.03467 167.309 5.248C167.139 5.29067 166.989 5.184 166.861 4.928C166.733 4.672 166.712 4.52267 166.797 4.48L176.205 0.0639992C176.291 0.0213331 176.376 0 176.461 0C176.675 0 176.909 0.106667 177.165 0.32C177.421 0.490667 177.549 0.661334 177.549 0.832001Z" fill="#3D5A80"/>
<path d="M202.878 46.784C202.708 46.8693 202.494 46.912 202.238 46.912C201.47 46.912 200.702 46.4 199.934 45.376C199.166 44.352 198.782 42.88 198.782 40.96V30.08C198.782 27.392 198.569 25.4293 198.142 24.192C197.715 22.912 196.947 22.272 195.838 22.272C194.771 22.272 193.961 22.6133 193.406 23.296C192.894 23.936 192.531 24.6613 192.318 25.472C192.147 26.2827 192.041 26.9653 191.998 27.52C191.87 28.8427 191.486 29.7813 190.846 30.336C190.206 30.848 189.353 31.104 188.286 31.104C187.177 31.104 186.388 30.8693 185.918 30.4C185.449 29.9307 185.214 29.3547 185.214 28.672C185.214 27.648 185.662 26.688 186.558 25.792C187.497 24.8533 188.67 24.0427 190.078 23.36C191.486 22.6347 192.937 22.08 194.43 21.696C195.966 21.2693 197.31 21.056 198.462 21.056C200.212 21.056 201.705 21.6107 202.942 22.72C204.18 23.8293 204.798 25.6427 204.798 28.16V39.488C204.798 40.7253 205.012 41.6853 205.438 42.368C205.908 43.0507 206.548 43.392 207.358 43.392C207.956 43.392 208.574 43.2427 209.214 42.944C209.385 42.8587 209.513 42.944 209.598 43.2C209.726 43.4133 209.684 43.5627 209.47 43.648L202.878 46.784ZM190.59 46.848C188.713 46.848 187.305 46.4427 186.366 45.632C185.47 44.7787 185.022 43.648 185.022 42.24C185.022 40.832 185.406 39.7653 186.174 39.04C186.942 38.272 187.945 37.6747 189.182 37.248C190.419 36.7787 191.7 36.3093 193.022 35.84L199.422 33.472L199.678 34.432L196.03 36.096C195.689 36.224 195.198 36.4373 194.558 36.736C193.918 36.992 193.342 37.3973 192.83 37.952C192.318 38.464 192.062 39.2107 192.062 40.192C192.062 41.3013 192.425 42.1333 193.15 42.688C193.875 43.2 194.601 43.456 195.326 43.456C195.668 43.456 195.987 43.4133 196.286 43.328C196.627 43.2427 197.012 43.0507 197.438 42.752L200.638 40.576L200.702 41.6L196.222 44.8C195.284 45.5253 194.387 46.0587 193.534 46.4C192.681 46.6987 191.699 46.848 190.59 46.848Z" fill="#3D5A80"/>
<path d="M58.6027 44.696C59.8827 44.696 61.2053 44.76 62.5707 44.888C63.9787 45.016 65.3013 45.208 66.5387 45.464C67.776 45.72 68.8213 46.04 69.6747 46.424C70.0587 46.552 70.2933 46.7227 70.3787 46.936C70.5067 47.1067 70.592 47.4267 70.6347 47.896L71.4667 56.792C71.4667 56.92 71.36 57.0053 71.1467 57.048C70.9333 57.0907 70.784 57.0267 70.6987 56.856C69.504 53.4 67.7973 50.7333 65.5787 48.856C63.4027 46.9787 60.736 46.04 57.5787 46.04C54.6773 46.04 52.0747 46.8293 49.7707 48.408C47.5093 49.944 45.7173 52.1413 44.3947 55C43.1147 57.8587 42.4747 61.272 42.4747 65.24C42.4747 68.2267 42.8587 70.936 43.6267 73.368C44.3947 75.7573 45.4827 77.8053 46.8907 79.512C48.2987 81.2187 49.9627 82.5413 51.8827 83.48C53.8027 84.376 55.9147 84.824 58.2187 84.824C61.248 84.824 63.744 84.0133 65.7067 82.392C67.712 80.728 69.5893 78.104 71.3387 74.52C71.424 74.392 71.552 74.3493 71.7227 74.392C71.936 74.4347 72.0427 74.52 72.0427 74.648L71.0827 82.584C71.04 83.096 70.9547 83.4373 70.8267 83.608C70.7413 83.736 70.5067 83.8853 70.1227 84.056C68.0747 84.7813 66.0267 85.3147 63.9787 85.656C61.9733 85.9973 60.0533 86.168 58.2187 86.168C53.6107 86.168 49.5147 85.3147 45.9307 83.608C42.3467 81.8587 39.5307 79.448 37.4827 76.376C35.4347 73.2613 34.4107 69.6987 34.4107 65.688C34.4107 62.616 35.008 59.8 36.2027 57.24C37.44 54.6373 39.1467 52.4187 41.3227 50.584C43.5413 48.7067 46.1227 47.256 49.0667 46.232C52.0107 45.208 55.1893 44.696 58.6027 44.696Z" fill="#3D5A80"/>
<path d="M76.1812 85.4C76.0958 85.4 76.0532 85.272 76.0532 85.016C76.0532 84.76 76.0958 84.632 76.1812 84.632C77.5038 84.632 78.3998 84.3333 78.8692 83.736C79.3812 83.096 79.6372 81.9227 79.6372 80.216V47.704C79.6372 46.2533 79.5092 45.208 79.2532 44.568C78.9972 43.8853 78.5065 43.544 77.7812 43.544C77.1838 43.544 76.3732 43.7787 75.3492 44.248C75.2212 44.2907 75.0932 44.184 74.9652 43.928C74.8372 43.672 74.8158 43.5227 74.9012 43.48L84.2452 39.064C84.3305 39.0213 84.3945 39 84.4372 39C84.4798 39 84.5225 39 84.5652 39C84.7785 39 84.9918 39.1067 85.2052 39.32C85.4612 39.4907 85.5892 39.6613 85.5892 39.832V80.216C85.5892 81.9227 85.8238 83.096 86.2932 83.736C86.8052 84.3333 87.7225 84.632 89.0452 84.632C89.2158 84.632 89.3012 84.76 89.3012 85.016C89.3012 85.272 89.2158 85.4 89.0452 85.4C88.1918 85.4 87.2105 85.3787 86.1012 85.336C85.0345 85.2933 83.8825 85.272 82.6452 85.272C81.4078 85.272 80.2345 85.2933 79.1252 85.336C78.0158 85.3787 77.0345 85.4 76.1812 85.4ZM93.3972 85.4C93.3118 85.4 93.2692 85.272 93.2692 85.016C93.2692 84.76 93.3118 84.632 93.3972 84.632C94.7198 84.632 95.6158 84.3333 96.0852 83.736C96.5972 83.096 96.8532 81.9227 96.8532 80.216V71C96.8532 66.4773 95.1038 64.216 91.6052 64.216C90.3252 64.216 89.0025 64.536 87.6372 65.176C86.3145 65.816 85.2692 66.6907 84.5012 67.8L84.1172 67.032C85.6105 64.8987 87.2958 63.192 89.1732 61.912C91.0505 60.5893 93.0985 59.928 95.3172 59.928C97.7065 59.928 99.5412 60.6747 100.821 62.168C102.144 63.6613 102.805 65.5813 102.805 67.928V80.216C102.805 81.9227 103.04 83.096 103.509 83.736C104.021 84.3333 104.939 84.632 106.261 84.632C106.432 84.632 106.517 84.76 106.517 85.016C106.517 85.272 106.432 85.4 106.261 85.4C105.408 85.4 104.427 85.3787 103.317 85.336C102.251 85.2933 101.099 85.272 99.8612 85.272C98.6238 85.272 97.4505 85.2933 96.3412 85.336C95.2318 85.3787 94.2505 85.4 93.3972 85.4Z" fill="#3D5A80"/>
<path d="M127.816 85.784C127.645 85.8693 127.432 85.912 127.176 85.912C126.408 85.912 125.64 85.4 124.872 84.376C124.104 83.352 123.72 81.88 123.72 79.96V69.08C123.72 66.392 123.506 64.4293 123.08 63.192C122.653 61.912 121.885 61.272 120.776 61.272C119.709 61.272 118.898 61.6133 118.344 62.296C117.832 62.936 117.469 63.6613 117.256 64.472C117.085 65.2827 116.978 65.9653 116.936 66.52C116.808 67.8427 116.424 68.7813 115.784 69.336C115.144 69.848 114.29 70.104 113.224 70.104C112.114 70.104 111.325 69.8693 110.856 69.4C110.386 68.9307 110.152 68.3547 110.152 67.672C110.152 66.648 110.6 65.688 111.496 64.792C112.434 63.8533 113.608 63.0427 115.016 62.36C116.424 61.6347 117.874 61.08 119.368 60.696C120.904 60.2693 122.248 60.056 123.4 60.056C125.149 60.056 126.642 60.6107 127.88 61.72C129.117 62.8293 129.736 64.6427 129.736 67.16V78.488C129.736 79.7253 129.949 80.6853 130.376 81.368C130.845 82.0507 131.485 82.392 132.296 82.392C132.893 82.392 133.512 82.2427 134.152 81.944C134.322 81.8587 134.45 81.944 134.536 82.2C134.664 82.4133 134.621 82.5627 134.408 82.648L127.816 85.784ZM115.528 85.848C113.65 85.848 112.242 85.4427 111.304 84.632C110.408 83.7787 109.96 82.648 109.96 81.24C109.96 79.832 110.344 78.7653 111.112 78.04C111.88 77.272 112.882 76.6747 114.12 76.248C115.357 75.7787 116.637 75.3093 117.96 74.84L124.36 72.472L124.616 73.432L120.968 75.096C120.626 75.224 120.136 75.4373 119.496 75.736C118.856 75.992 118.28 76.3973 117.768 76.952C117.256 77.464 117 78.2107 117 79.192C117 80.3013 117.362 81.1333 118.088 81.688C118.813 82.2 119.538 82.456 120.264 82.456C120.605 82.456 120.925 82.4133 121.224 82.328C121.565 82.2427 121.949 82.0507 122.376 81.752L125.576 79.576L125.64 80.6L121.16 83.8C120.221 84.5253 119.325 85.0587 118.472 85.4C117.618 85.6987 116.637 85.848 115.528 85.848Z" fill="#3D5A80"/>
<path d="M154.049 85.4C153.921 85.4 153.857 85.272 153.857 85.016C153.857 84.76 153.921 84.632 154.049 84.632C155.372 84.632 156.268 84.3333 156.737 83.736C157.207 83.096 157.441 81.9227 157.441 80.216V71C157.441 68.696 157.014 66.9893 156.161 65.88C155.35 64.7707 154.049 64.216 152.257 64.216C150.977 64.216 149.655 64.536 148.289 65.176C146.967 65.816 145.9 66.6907 145.089 67.8L144.769 67.032C146.262 64.8987 147.948 63.192 149.825 61.912C151.702 60.5893 153.75 59.928 155.969 59.928C158.358 59.928 160.193 60.6747 161.473 62.168C162.796 63.6613 163.457 65.5813 163.457 67.928V80.216C163.457 81.9227 163.692 83.096 164.161 83.736C164.673 84.3333 165.59 84.632 166.913 84.632C167.041 84.632 167.105 84.76 167.105 85.016C167.105 85.272 167.041 85.4 166.913 85.4C166.06 85.4 165.078 85.3787 163.969 85.336C162.86 85.2933 161.687 85.272 160.449 85.272C159.255 85.272 158.102 85.2933 156.993 85.336C155.884 85.3787 154.902 85.4 154.049 85.4ZM136.833 85.4C136.705 85.4 136.641 85.272 136.641 85.016C136.641 84.76 136.705 84.632 136.833 84.632C138.156 84.632 139.052 84.3333 139.521 83.736C139.99 83.096 140.225 81.9227 140.225 80.216V68.184C140.225 66.8613 140.076 65.9013 139.777 65.304C139.478 64.664 138.966 64.344 138.241 64.344C137.857 64.344 137.409 64.4293 136.897 64.6C136.385 64.728 135.809 64.9413 135.169 65.24C134.998 65.3253 134.871 65.24 134.785 64.984C134.7 64.728 134.7 64.5787 134.785 64.536L143.681 60.184C143.937 60.0987 144.086 60.056 144.129 60.056C144.598 60.056 145.068 60.568 145.537 61.592C146.007 62.616 146.241 64.088 146.241 66.008V80.216C146.241 81.9227 146.476 83.096 146.945 83.736C147.457 84.3333 148.375 84.632 149.697 84.632C149.825 84.632 149.889 84.76 149.889 85.016C149.889 85.272 149.825 85.4 149.697 85.4C148.844 85.4 147.863 85.3787 146.753 85.336C145.644 85.2933 144.471 85.272 143.233 85.272C142.039 85.272 140.886 85.2933 139.777 85.336C138.668 85.3787 137.686 85.4 136.833 85.4Z" fill="#3D5A80"/>
<path d="M183.001 86.168C180.057 86.168 177.625 85.5493 175.705 84.312C173.785 83.032 172.355 81.4107 171.417 79.448C170.521 77.4853 170.073 75.5013 170.073 73.496C170.073 71.3627 170.521 69.464 171.417 67.8C172.313 66.136 173.486 64.7493 174.937 63.64C176.43 62.488 178.073 61.6133 179.865 61.016C181.657 60.4187 183.427 60.12 185.177 60.12C186.414 60.12 187.651 60.312 188.889 60.696C190.126 61.0373 191.15 61.5707 191.961 62.296C192.771 62.9787 193.177 63.8533 193.177 64.92C193.177 65.6453 192.878 66.328 192.281 66.968C191.683 67.5653 190.809 67.864 189.657 67.864C188.59 67.864 187.758 67.5867 187.161 67.032C186.563 66.4773 186.094 65.6667 185.753 64.6C185.454 63.576 185.113 62.808 184.729 62.296C184.387 61.7413 183.705 61.464 182.681 61.464C180.846 61.464 179.374 62.3813 178.265 64.216C177.198 66.0507 176.665 68.44 176.665 71.384C176.665 73.5173 176.985 75.48 177.625 77.272C178.265 79.0213 179.31 80.4293 180.761 81.496C182.211 82.52 184.153 83.032 186.585 83.032C187.865 83.032 188.931 82.8827 189.785 82.584C190.681 82.2853 191.662 81.88 192.729 81.368C192.814 81.2827 192.921 81.3253 193.049 81.496C193.219 81.6667 193.262 81.7947 193.177 81.88C191.683 83.2453 190.147 84.312 188.569 85.08C186.99 85.8053 185.134 86.168 183.001 86.168Z" fill="#3D5A80"/>
<path d="M209.877 86.168C207.104 86.168 204.736 85.592 202.773 84.44C200.853 83.288 199.381 81.7733 198.357 79.896C197.376 77.976 196.885 75.928 196.885 73.752C196.885 71.2347 197.504 68.952 198.741 66.904C199.978 64.856 201.685 63.2133 203.861 61.976C206.037 60.7387 208.533 60.12 211.349 60.12C213.866 60.12 215.872 60.696 217.365 61.848C218.901 63 219.669 64.8773 219.669 67.48C219.669 68.0347 219.627 68.504 219.541 68.888C219.456 69.272 219.264 69.464 218.965 69.464H212.821C212.907 67.032 212.672 65.0907 212.117 63.64C211.563 62.1467 210.496 61.4 208.917 61.4C207.21 61.4 205.845 62.2747 204.821 64.024C203.84 65.7733 203.349 68.0987 203.349 71C203.349 73.4747 203.733 75.608 204.501 77.4C205.269 79.192 206.4 80.5787 207.893 81.56C209.387 82.5413 211.221 83.032 213.397 83.032C214.677 83.032 215.744 82.8827 216.597 82.584C217.493 82.2427 218.475 81.7947 219.541 81.24C219.627 81.1547 219.733 81.1973 219.861 81.368C220.032 81.5387 220.074 81.688 219.989 81.816C218.41 83.3947 216.789 84.5253 215.125 85.208C213.504 85.848 211.755 86.168 209.877 86.168ZM201.109 69.528L201.045 68.312L215.061 68.056V69.464L201.109 69.528Z" fill="#3D5A80"/>
</svg>
